<svg width="24" height="24" viewBox="0 0 24 24" fill="none" xmlns="http://www.w3.org/2000/svg">
<path d="M5.64305 22H4.00145C1.99354 21.9999 0.552836 20.0646 1.12742 18.1406L1.81297 15.8457H7.43113L5.64305 22ZM17.7241 18.9434C17.4671 19.7843 16.6904 20.3584 15.811 20.3584H12.2065L13.6352 15.8457H18.6704L17.7241 18.9434ZM9.68309 8.1543H15.8852L13.6352 15.8457H7.43309L9.63328 8.1543H4.64891L5.5952 5.05664C5.85219 4.21573 6.62801 3.64173 7.5073 3.6416H11.1128L9.68309 8.1543ZM21.9995 2C22.6688 2 23.149 2.64478 22.9575 3.28613L21.5044 8.15332H15.8852L17.6733 2H21.9995Z" fill="white"/>
</svg>
